<svg width="50" height="50" viewBox="0 0 50 50" fill="none" xmlns="http://www.w3.org/2000/svg">
<path d="M8.65625 39.8438H14.9062C15.1134 39.8438 15.3122 39.7614 15.4587 39.6149C15.6052 39.4684 15.6875 39.2697 15.6875 39.0625C15.6875 38.8553 15.6052 38.6566 15.4587 38.5101C15.3122 38.3636 15.1134 38.2812 14.9062 38.2812H8.65625C8.44905 38.2812 8.25034 38.3636 8.10382 38.5101C7.95731 38.6566 7.875 38.8553 7.875 39.0625C7.875 39.2697 7.95731 39.4684 8.10382 39.6149C8.25034 39.7614 8.44905 39.8438 8.65625 39.8438ZM8.65625 35.9375H14.9062C15.1134 35.9375 15.3122 35.8552 15.4587 35.7087C15.6052 35.5622 15.6875 35.3635 15.6875 35.1562C15.6875 34.949 15.6052 34.7503 15.4587 34.6038C15.3122 34.4573 15.1134 34.375 14.9062 34.375H8.65625C8.44905 34.375 8.25034 34.4573 8.10382 34.6038C7.95731 34.7503 7.875 34.949 7.875 35.1562C7.875 35.3635 7.95731 35.5622 8.10382 35.7087C8.25034 35.8552 8.44905 35.9375 8.65625 35.9375ZM4.6875 37.5V36.7188C4.6875 36.5115 4.60519 36.3128 4.45868 36.1663C4.31216 36.0198 4.11345 35.9375 3.90625 35.9375C3.69905 35.9375 3.50034 36.0198 3.35382 36.1663C3.20731 36.3128 3.125 36.5115 3.125 36.7188V37.5C3.125 37.7072 3.20731 37.9059 3.35382 38.0524C3.50034 38.1989 3.69905 38.2812 3.90625 38.2812C4.11345 38.2812 4.31216 38.1989 4.45868 38.0524C4.60519 37.9059 4.6875 37.7072 4.6875 37.5Z" fill="#081B4B" stroke="#081B4B"/>
<path d="M39.0623 23.4766C39.0623 10.8437 39.0623 11.6328 38.9764 11.375C38.8904 11.1172 39.4139 11.9766 33.4529 3.46094C33.1092 2.96094 34.1873 3.125 14.8435 3.125C14.6363 3.125 14.4376 3.20731 14.2911 3.35382C14.1446 3.50034 14.0623 3.69905 14.0623 3.90625C14.0623 4.11345 14.1446 4.31216 14.2911 4.45868C14.4376 4.60519 14.6363 4.6875 14.8435 4.6875H17.7967L16.5467 10.9375H5.40604L9.78104 4.6875H11.7185C11.9257 4.6875 12.1245 4.60519 12.271 4.45868C12.4175 4.31216 12.4998 4.11345 12.4998 3.90625C12.4998 3.69905 12.4175 3.50034 12.271 3.35382C12.1245 3.20731 11.9257 3.125 11.7185 3.125H9.37479C8.78886 3.125 9.10136 2.92969 3.26542 11.2734C3.06229 11.5625 3.12479 10.5547 3.12479 33.5938C3.12479 33.801 3.2071 33.9997 3.35362 34.1462C3.50013 34.2927 3.69884 34.375 3.90604 34.375C4.11324 34.375 4.31196 34.2927 4.45847 34.1462C4.60498 33.9997 4.68729 33.801 4.68729 33.5938V12.5H16.406V17.9687C16.406 18.176 16.4884 18.3747 16.6349 18.5212C16.7814 18.6677 16.9801 18.75 17.1873 18.75H24.9998C25.207 18.75 25.4057 18.6677 25.5522 18.5212C25.6987 18.3747 25.781 18.176 25.781 17.9687V12.5H27.3435C27.5507 12.5 27.7495 12.4177 27.896 12.2712C28.0425 12.1247 28.1248 11.926 28.1248 11.7188C28.1248 11.5116 28.0425 11.3128 27.896 11.1663C27.7495 11.0198 27.5507 10.9375 27.3435 10.9375H25.6404L24.3904 4.6875H32.406L36.781 10.9375H30.4685C30.2613 10.9375 30.0626 11.0198 29.9161 11.1663C29.7696 11.3128 29.6873 11.5116 29.6873 11.7188C29.6873 11.926 29.7696 12.1247 29.9161 12.2712C30.0626 12.4177 30.2613 12.5 30.4685 12.5H37.4998V23.4375C36.5341 23.5459 35.5922 23.8097 34.7107 24.2187C29.4842 26.6172 27.1639 33.2891 33.7654 42.1875H4.68729V40.625C4.68729 40.4178 4.60498 40.2191 4.45847 40.0726C4.31196 39.9261 4.11324 39.8438 3.90604 39.8438C3.69884 39.8438 3.50013 39.9261 3.35362 40.0726C3.2071 40.2191 3.12479 40.4178 3.12479 40.625V42.9688C3.12479 43.176 3.2071 43.3747 3.35362 43.5212C3.50013 43.6677 3.69884 43.75 3.90604 43.75H34.9998C35.8565 44.7811 36.7777 45.757 37.7576 46.6719C37.9012 46.8014 38.0877 46.8732 38.281 46.8732C38.4744 46.8732 38.6609 46.8014 38.8045 46.6719C40.2188 45.349 41.5129 43.9032 42.6717 42.3516C42.797 42.1837 42.8506 41.973 42.8205 41.7657C42.7905 41.5583 42.6793 41.3714 42.5115 41.2461C42.3437 41.1207 42.1329 41.0672 41.9256 41.0972C41.7183 41.1273 41.5314 41.2384 41.406 41.4063C40.4501 42.6786 39.4059 43.8821 38.281 45.0078C34.9764 41.7422 31.2498 36.6484 31.2498 32.0234C31.2498 30.1586 31.9906 28.3702 33.3092 27.0516C34.6278 25.733 36.4162 24.9922 38.281 24.9922C40.1458 24.9922 41.9343 25.733 43.2529 27.0516C44.5715 28.3702 45.3123 30.1586 45.3123 32.0234C45.1969 34.4657 44.4397 36.8344 43.117 38.8906C43.0527 38.979 43.0077 39.08 42.9848 39.1869C42.962 39.2938 42.9618 39.4043 42.9844 39.5112C43.0069 39.6182 43.0516 39.7192 43.1157 39.8078C43.1797 39.8964 43.2616 39.9706 43.3561 40.0255C43.4506 40.0805 43.5556 40.115 43.6643 40.1268C43.773 40.1386 43.8829 40.1275 43.987 40.0942C44.0911 40.0608 44.1871 40.006 44.2687 39.9333C44.3503 39.8605 44.4157 39.7715 44.4607 39.6719C45.9273 37.3835 46.7603 34.7469 46.8748 32.0313C46.8739 29.8879 46.0722 27.8222 44.6268 26.2395C43.1814 24.6569 41.1968 23.6714 39.0623 23.4766ZM24.2185 17.1875H17.9685V12.5H24.2185V17.1875ZM24.0467 10.9375H18.1404L19.3904 4.6875H22.7967L24.0467 10.9375Z" fill="#081B4B" stroke="#081B4B"/>
<path d="M34.375 32.0312C34.3772 32.8157 34.6154 33.5813 35.0588 34.2284C35.5022 34.8756 36.1302 35.3742 36.8609 35.6594C37.5917 35.9447 38.3914 36.0033 39.1559 35.8276C39.9205 35.6519 40.6144 35.2502 41.1474 34.6746C41.6804 34.099 42.0277 33.3763 42.1442 32.6005C42.2607 31.8248 42.1409 31.0319 41.8004 30.3252C41.46 29.6185 40.9146 29.0306 40.2354 28.6382C39.5561 28.2458 38.7745 28.067 37.9922 28.125C37.785 28.1478 37.5953 28.252 37.4649 28.4146C37.3345 28.5772 37.2741 28.785 37.2969 28.9922C37.3197 29.1994 37.4238 29.389 37.5865 29.5194C37.7491 29.6498 37.9569 29.7103 38.1641 29.6875C38.6778 29.6616 39.1858 29.8055 39.6097 30.0969C40.0336 30.3883 40.3499 30.811 40.5097 31.3C40.6696 31.7889 40.6641 32.3168 40.4942 32.8024C40.3243 33.2879 39.9994 33.7041 39.5696 33.9867C39.1398 34.2693 38.6289 34.4026 38.1158 34.3661C37.6027 34.3297 37.1159 34.1254 36.7303 33.7848C36.3448 33.4443 36.082 32.9864 35.9825 32.4817C35.883 31.977 35.9523 31.4536 36.1797 30.9922C36.7578 29.8359 34.375 28.7969 34.375 32.0312Z" fill="#081B4B"/>
</svg>
